name D:\school\WTK\thesis\model\3dpredictsim\Results\Final\Fal_s1_bCst_ig1_v10.mot
datacolumns 126
datarows 4
range 1.88172985 1.91936445
endheader
time	pelvis_tilt	pelvis_list	pelvis_rotation	pelvis_tx	pelvis_ty	pelvis_tz	hip_flexion_l	hip_adduction_l	hip_rotation_l	hip_flexion_r	hip_adduction_r	hip_rotation_r	knee_angle_l	knee_angle_r	ankle_angle_l	ankle_angle_r	subtalar_angle_l	subtalar_angle_r	mtp_angle_l	mtp_angle_r	lumbar_extension	lumbar_bending	lumbar_rotation	arm_flex_l	arm_add_l	arm_rot_l	arm_flex_r	arm_add_r	arm_rot_r	elbow_flex_l	elbow_flex_r	pro_sup_l	pro_sup_r	glut_med1_l/activation	glut_med2_l/activation	glut_med3_l/activation	glut_min1_l/activation	glut_min2_l/activation	glut_min3_l/activation	semimem_l/activation	semiten_l/activation	bifemlh_l/activation	bifemsh_l/activation	sar_l/activation	add_long_l/activation	add_brev_l/activation	add_mag1_l/activation	add_mag2_l/activation	add_mag3_l/activation	tfl_l/activation	pect_l/activation	grac_l/activation	glut_max1_l/activation	glut_max2_l/activation	glut_max3_l/activation	iliacus_l/activation	psoas_l/activation	quad_fem_l/activation	gem_l/activation	peri_l/activation	rect_fem_l/activation	vas_med_l/activation	vas_int_l/activation	vas_lat_l/activation	med_gas_l/activation	lat_gas_l/activation	soleus_l/activation	tib_post_l/activation	flex_dig_l/activation	flex_hal_l/activation	tib_ant_l/activation	per_brev_l/activation	per_long_l/activation	per_tert_l/activation	ext_dig_l/activation	ext_hal_l/activation	ercspn_l/activation	intobl_l/activation	extobl_l/activation	glut_med1_r/activation	glut_med2_r/activation	glut_med3_r/activation	glut_min1_r/activation	glut_min2_r/activation	glut_min3_r/activation	semimem_r/activation	semiten_r/activation	bifemlh_r/activation	bifemsh_r/activation	sar_r/activation	add_long_r/activation	add_brev_r/activation	add_mag1_r/activation	add_mag2_r/activation	add_mag3_r/activation	tfl_r/activation	pect_r/activation	grac_r/activation	glut_max1_r/activation	glut_max2_r/activation	glut_max3_r/activation	iliacus_r/activation	psoas_r/activation	quad_fem_r/activation	gem_r/activation	peri_r/activation	rect_fem_r/activation	vas_med_r/activation	vas_int_r/activation	vas_lat_r/activation	med_gas_r/activation	lat_gas_r/activation	soleus_r/activation	tib_post_r/activation	flex_dig_r/activation	flex_hal_r/activation	tib_ant_r/activation	per_brev_r/activation	per_long_r/activation	per_tert_r/activation	ext_dig_r/activation	ext_hal_r/activation	ercspn_r/activation	intobl_r/activation	extobl_r/activation	
          1.88172985	         -2.92547441	          1.92782785	         -4.13623189	          1.88172985	          0.92524725	          0.00153523	         28.30993255	          3.65902401	         -0.21701907	        -15.07942484	         -0.20095893	          6.02863401	        -12.39239866	         -5.08608599	          4.93270656	          3.69437094	         -1.67686060	          7.82432089	         -0.12341682	         17.67936511	         -1.25875533	          0.13802103	          2.07202408	         -3.85282810	        -13.47767794	          7.66371248	          3.96663250	        -13.44975054	         15.20734070	         16.71228193	         30.94811994	         86.51662706	         86.51662706	          0.09281034	          0.05000032	          0.06042608	          0.05000022	          0.05000032	          0.05000116	          0.05803170	          0.05022283	          0.05493935	          0.05000052	          0.05000321	          0.12919095	          0.18192765	          0.18736425	          0.12984082	          0.08459140	          0.06045435	          0.05001577	          0.06983486	          0.05843891	          0.06045385	          0.08142664	          0.05000035	          0.05000074	          0.20805017	          0.05000096	          0.05000050	          0.05075743	          0.07013540	          0.07136379	          0.05921440	          0.05000063	          0.05000082	          0.05632406	          0.05000019	          0.05000085	          0.05000091	          0.45292720	          0.24680524	          0.15203197	          0.11799230	          0.44247197	          0.13530790	          0.05589615	          0.12871127	          0.13703303	          0.39923116	          0.16161064	          0.10924673	          0.33908863	          0.26567805	          0.15621228	          0.05000140	          0.05000053	          0.05000037	          0.05676924	          0.12102886	          0.05000028	          0.05000029	          0.05000048	          0.05000122	          0.05000074	          0.29493092	          0.05000140	          0.05000140	          0.05002605	          0.05000571	          0.05000177	          0.36654473	          0.51188722	          0.05000123	          0.05002227	          0.07379591	          0.15349112	          0.05000081	          0.05000083	          0.05000082	          0.33619919	          0.41771525	          0.30780993	          0.26919836	          0.23641530	          0.29274019	          0.05000019	          0.05000031	          0.09604817	          0.05000044	          0.05000016	          0.05000072	          0.05000003	          0.05000009	          0.05000010	
          1.89427471	         -2.92943323	          1.96471183	         -4.41762364	          1.89675636	          0.92421272	          0.00126016	         27.70894603	          3.92513367	          0.00052660	        -15.09334537	         -0.39620152	          5.73817626	        -11.98611336	         -6.68436344	          4.44572152	          3.30787174	         -2.07391148	          8.58233277	         -0.10786008	         18.67049540	         -1.10535120	         -0.02422859	          2.16221348	         -4.79579764	        -13.48760570	          7.46332379	          3.86121099	        -13.45041726	         15.67953817	         16.07543691	         32.40677518	         86.51662706	         86.51662706	          0.07676120	          0.06036545	          0.05000032	          0.06045631	          0.06045432	          0.05000264	          0.05000032	          0.05000105	          0.05000070	          0.05000129	          0.05000168	          0.10685878	          0.18893731	          0.18999861	          0.16034308	          0.09578849	          0.05000055	          0.06179174	          0.05779084	          0.05000068	          0.05000031	          0.11432125	          0.05953362	          0.05001131	          0.29586978	          0.15743401	          0.15105815	          0.07309392	          0.14644630	          0.14640698	          0.12707793	          0.05000003	          0.05000007	          0.05000000	          0.05000020	          0.05000103	          0.05000093	          0.51479482	          0.22257761	          0.16470039	          0.30978358	          0.46506105	          0.15666767	          0.05203724	          0.10645391	          0.11333655	          0.37908527	          0.13366412	          0.09035527	          0.28045206	          0.21973580	          0.12919937	          0.05000260	          0.05000086	          0.05000084	          0.05000141	          0.10010057	          0.05000071	          0.05000109	          0.05000134	          0.05000306	          0.05000158	          0.24393016	          0.05000541	          0.05000436	          0.05001215	          0.05000631	          0.05000353	          0.30316012	          0.46182546	          0.05000461	          0.05082942	          0.06103495	          0.16649726	          0.05000160	          0.05000172	          0.05000165	          0.29174057	          0.38162316	          0.29572466	          0.26030422	          0.24001176	          0.29513512	          0.05000014	          0.05000777	          0.11493643	          0.05000075	          0.05000020	          0.05000071	          0.05000005	          0.06709661	          0.05000008	
          1.90681958	         -2.93007214	          1.99806070	         -4.68257055	          1.91216220	          0.92326894	          0.00099034	         26.99559005	          4.13951604	          0.26241347	        -15.05066843	         -0.59738365	          5.44309852	        -12.14164744	         -8.39906865	          3.88951686	          2.76142265	         -2.48732593	          9.33415604	         -0.12583090	         19.60005913	         -0.92669909	         -0.19212291	          2.24260871	         -5.81138802	        -13.49688393	          7.31095241	          3.67171072	        -13.44987317	         16.08862377	         15.55092614	         33.85976565	         86.51662706	         86.51662706	          0.13512414	          0.05000015	          0.05000122	          0.05000195	          0.05000041	          0.05000052	          0.06049539	          0.05000071	          0.05584180	          0.05000017	          0.05000082	          0.08838034	          0.15626551	          0.15714471	          0.13261662	          0.08737985	          0.05000322	          0.06045473	          0.06343041	          0.05000170	          0.09929468	          0.09455497	          0.05000059	          0.05000064	          0.24470724	          0.13020981	          0.12522861	          0.06045417	          0.12112235	          0.12108982	          0.10510319	          0.05451986	          0.05657591	          0.05587475	          0.06045389	          0.06045024	          0.05000370	          0.42577405	          0.23232496	          0.13621969	          0.25621454	          0.48482036	          0.12957593	          0.05000003	          0.11133404	          0.09373777	          0.33571348	          0.11055022	          0.07473057	          0.23195531	          0.18173804	          0.10685758	          0.05000295	          0.05000103	          0.05000063	          0.05000038	          0.08279118	          0.05000414	          0.05000268	          0.05000751	          0.05001316	          0.06044853	          0.20174865	          0.05000355	          0.05000220	          0.05001369	          0.05001183	          0.05002243	          0.27666248	          0.45365484	          0.05000106	          0.05000143	          0.05048053	          0.13770612	          0.08595437	          0.06046190	          0.07812016	          0.24129121	          0.31767755	          0.27326806	          0.24284165	          0.20621957	          0.27893859	          0.05000007	          0.05000137	          0.13243219	          0.05000031	          0.05000010	          0.05000036	          0.05000006	          0.05678018	          0.06045396	
          1.91936445	         -2.92867995	          2.03316056	         -4.92179905	          1.92781390	          0.92243272	          0.00070750	         26.18397088	          4.31258964	          0.53152580	        -14.92991431	         -0.80490172	          5.14795623	        -12.40053567	        -10.25145254	          3.40701107	          2.06663289	         -2.90274751	         10.05927434	         -0.13831324	         20.40685511	         -0.73531024	         -0.37072407	          2.31447900	         -6.86501857	        -13.50547684	          7.20819865	          3.41594419	        -13.45063001	         16.44671722	         15.12468578	         35.29324092	         86.51662706	         86.51662706	          0.22468560	          0.20967536	          0.22088208	          0.14829968	          0.15571269	          0.11683427	          0.05003450	          0.06734117	          0.05000292	          0.07223723	          0.05000691	          0.07309719	          0.12924326	          0.12997066	          0.10968441	          0.11860364	          0.05000058	          0.05000211	          0.05246278	          0.15929522	          0.13199642	          0.10468327	          0.05000020	          0.05000022	          0.20239126	          0.10769348	          0.10357462	          0.05000029	          0.10017755	          0.10015080	          0.08692847	          0.05000018	          0.05000033	          0.05000004	          0.05000005	          0.05000024	          0.05000038	          0.52133999	          0.28687151	          0.15733827	          0.40217430	          0.50091187	          0.20093119	          0.06311933	          0.10625801	          0.07752812	          0.34875782	          0.09143332	          0.06180782	          0.30754548	          0.15031116	          0.08837933	          0.05000177	          0.05000035	          0.05000031	          0.05000052	          0.07309084	          0.05000089	          0.05000068	          0.05000068	          0.05000160	          0.05000108	          0.16686156	          0.05000510	          0.05000114	          0.05000274	          0.05000162	          0.05000102	          0.23798411	          0.42257883	          0.05000025	          0.05000192	          0.05383267	          0.18614487	          0.07109393	          0.05000762	          0.09229325	          0.19956579	          0.26274303	          0.22601306	          0.22113225	          0.17056040	          0.23070512	          0.05000007	          0.08670857	          0.13908808	          0.05000036	          0.05000010	          0.05000037	          0.05000031	          0.05000002	          0.05000007	
